<svg width="364" height="262" viewBox="0 0 364 262" fill="none" xmlns="http://www.w3.org/2000/svg">
<path fill-rule="evenodd" clip-rule="evenodd" d="M342.561 220.671C344.485 218.128 346.395 215.555 348.293 212.989C354.123 205.083 353.479 206.921 344.133 198.629C341.771 196.54 338.674 193.29 336.209 195.408C333.787 197.491 335.049 201.381 331.906 203.231C329.907 204.404 327.771 202.854 326.34 200.942C325.099 199.292 324.993 196.902 326.197 195.227C327.059 194.027 327.997 193.942 329.843 192.211C332.563 189.657 331.728 187.854 329.225 185.56C326.846 183.382 324.359 181.241 321.927 179.117C320.765 178.1 320.02 177.319 319.367 176.735C317.561 175.112 314.894 175.382 313.377 177.312C307.969 184.206 292.684 204.678 287.862 211.674C286.59 213.518 286.741 216.096 288.23 217.743C289.454 219.096 291.132 220.206 292.969 221.812C294.574 223.213 296.566 225.355 298.507 226.9C300.671 228.622 303.748 227.752 304.888 225.126C306.384 221.677 307.895 217.557 312.447 221.392C320.147 227.876 308.432 228.681 308.546 233.948C308.597 236.351 311.785 238.336 313.857 240.146C315.324 241.435 319.765 245.687 321.101 246.372C323.504 247.598 325.516 244.166 327.176 241.929C327.991 240.831 328.86 239.746 329.712 238.641C331.435 236.399 334.576 236.501 336.277 238.776C337.709 240.688 339.541 242.046 342.943 241.364C351.238 239.7 353.475 232.172 351.782 227.368C351.121 225.501 349.924 223.929 348.107 222.746C347.371 222.27 346.143 221.685 345.502 221.532C343.49 221.058 344.669 221.781 342.56 220.659L342.564 220.669L342.561 220.671Z" fill="white" fill-opacity="0.3"/>
<path d="M98.9856 29.9671C98.2009 30.3082 97.5225 30.6273 96.8277 30.902C96.047 31.2077 95.25 31.4645 94.4694 31.7657C93.6152 32.0936 92.7814 32.519 91.9068 32.7582C91.5839 32.8468 91.0526 32.6297 90.8155 32.3506C89.7324 31.0969 88.3346 30.5919 86.8796 30.1178C85.4573 29.6527 84.0841 29.0192 82.6822 28.4832C81.7544 28.1287 80.8103 27.8319 79.8784 27.4953C79.061 27.2029 78.2477 26.8927 77.4384 26.5826C76.2654 26.1307 75.0924 25.6699 73.9235 25.2136C72.7342 24.7528 71.553 24.27 70.3555 23.8359C69.44 23.508 68.4958 23.2688 67.5803 22.941C66.91 22.7017 66.2683 22.3784 65.6103 22.1082C64.7275 21.7493 63.8447 21.3994 62.9578 21.0538C61.4619 20.4691 59.9701 19.8797 58.4701 19.317C57.5628 18.9759 56.6391 18.6925 55.7277 18.3735C55.1146 18.1564 54.5097 17.9172 53.8967 17.7001C53.7373 17.6425 53.4675 17.5938 53.2959 17.6071C51.3014 17.7533 49.1107 19.5652 48.6325 21.7404C48.281 23.3441 48.5262 24.9478 49.6011 26.2902C50.394 27.2825 51.3259 27.9603 52.5071 28.3324C54.0111 28.8064 55.4825 29.4134 56.962 29.9805C57.8326 30.3127 58.6909 30.6892 59.5614 31.0259C60.669 31.4557 61.7807 31.8587 62.8883 32.2752C64.0899 32.727 65.2875 33.1835 66.4891 33.6265C67.6539 34.0562 68.8269 34.4637 69.9917 34.8934C71.7287 35.5358 73.4658 36.1781 75.1987 36.8338C76.1673 37.2015 77.1278 37.587 78.1455 38.2028C77.5692 38.4243 76.9929 38.6414 76.4207 38.8673C75.3009 39.3103 74.1851 39.7578 73.0611 40.1964C71.9126 40.6482 70.7642 41.0867 69.6157 41.5386C69.0353 41.769 68.4672 42.0348 67.8828 42.2652C66.5871 42.7747 65.2915 43.2841 63.9959 43.7803C61.6254 44.684 59.2467 45.5524 56.8884 46.4916C55.2454 47.1472 53.6392 47.9181 52.0044 48.6047C51.0112 49.0212 49.9935 49.3666 49.0248 49.7255C47.0426 48.5205 44.9868 47.3154 42.9759 46.0263C41.5904 45.1358 40.2825 44.0948 38.9093 43.1822C37.8384 42.4733 36.7022 41.8886 35.6191 41.1975C34.1478 40.2539 32.7091 39.2439 31.2378 38.3047C30.0975 37.5782 28.9122 36.9313 27.7719 36.2047C26.3864 35.3187 25.0335 34.3841 23.6603 33.4759C23.4273 33.3209 23.1821 33.1922 22.945 33.0416C20.9382 31.7568 18.9356 30.4722 16.9329 29.1786C15.1632 28.0356 13.4098 26.8616 11.6319 25.7364C10.6714 25.1295 9.64966 24.6421 8.69736 24.0308C7.10339 23.003 5.55437 21.8955 3.9604 20.8633C2.7261 20.0658 1.4591 19.3348 0 18.4488C0.858292 18.0855 1.54901 17.7622 2.26017 17.5009C3.1389 17.1819 4.03806 16.9338 4.91679 16.6237C6.2124 16.1674 7.50393 15.689 8.79137 15.2017C10.0379 14.7276 11.2722 14.2092 12.527 13.7573C13.0747 13.558 13.6632 13.4914 14.2313 13.3364C14.7218 13.2035 15.2081 13.0441 15.6863 12.8713C16.9942 12.3929 18.3021 11.9056 19.6058 11.4095C20.8524 10.9399 22.0867 10.4303 23.3415 9.98286C24.5635 9.54871 25.8101 9.20316 27.028 8.76458C27.8986 8.45004 28.7365 8.02035 29.6029 7.69252C30.4122 7.38684 31.2459 7.152 32.0593 6.86404C33.3181 6.42103 34.5647 5.94265 35.8235 5.50407C37.0701 5.06549 38.333 4.67558 39.5755 4.2237C40.7812 3.78512 41.9664 3.26673 43.1721 2.82372C44.3982 2.37627 45.653 2.01317 46.875 1.55244C48.1216 1.08727 49.3191 0.462599 50.5861 0.0860391C51.1542 -0.0867356 51.894 0.0151139 52.4498 0.263201C53.4471 0.710643 54.379 1.34417 55.3108 1.94223C56.3571 2.61118 57.3666 3.34645 58.4088 4.02426C59.1936 4.53373 60.0069 4.99016 60.7957 5.48633C62.1812 6.35463 63.5586 7.24062 64.9482 8.10893C66.5258 9.09241 68.1239 10.0404 69.6811 11.0549C71.0544 11.9498 72.3827 12.929 73.7437 13.846C74.136 14.1074 74.602 14.2403 74.9943 14.5017C76.5883 15.556 78.1496 16.6634 79.7517 17.7001C80.7285 18.3336 81.7626 18.8608 82.7517 19.4721C83.9206 20.1987 85.065 20.974 86.2298 21.7049C87.8483 22.7239 89.4872 23.7117 91.1057 24.7351C93.0798 25.9844 95.0457 27.2425 97.0075 28.5184C97.6287 28.9216 98.2091 29.4001 98.9693 29.9628L98.9856 29.9671Z" fill="white" fill-opacity="0.4"/>
<path d="M48.8609 53.4378C49.3677 53.2074 49.8868 52.9506 50.4222 52.738C51.6238 52.2595 52.8336 51.7897 54.0434 51.3334C55.5025 50.7841 56.9738 50.2703 58.4288 49.7165C59.1564 49.4374 59.8593 49.0874 60.5827 48.7861C61.6699 48.3298 62.753 47.8692 63.8483 47.435C64.911 47.0142 65.9859 46.6331 67.0526 46.2299C67.9722 45.8844 68.8959 45.539 69.8114 45.1802C70.6043 44.8701 71.4095 44.5865 72.1656 44.1923C72.9789 43.7625 73.3836 43.9484 73.3836 44.892C73.3836 51.1651 73.4285 57.4383 73.3386 63.7114C73.3263 64.6329 72.8645 65.7269 72.2882 66.4225C71.0621 67.8888 69.6888 69.2357 68.2461 70.4496C67.3265 71.2204 66.1943 71.7298 65.1113 72.2348C63.4069 73.0323 61.6863 73.8031 59.9288 74.4499C58.8335 74.853 57.6605 75.0037 56.5202 75.2606C55.433 75.5087 54.3499 75.7656 53.2586 75.9916C52.993 76.0447 52.7069 75.9916 52.429 75.9916C50.4998 75.9916 48.5666 76.0714 46.6416 75.9695C45.5258 75.9119 44.4264 75.5574 43.3188 75.3271C42.7017 75.1986 42.0886 75.0479 41.4796 74.8663C40.5151 74.5828 39.5301 74.3436 38.6105 73.9316C36.6078 73.0367 34.6255 72.071 32.6637 71.0609C31.834 70.6356 31.0902 70.0197 30.3054 69.4881C28.8341 68.4913 27.6325 67.1446 26.3042 65.9706C24.1871 64.1011 22.6912 61.8018 21.6449 59.1792C21.3792 58.5147 20.9419 57.4295 21.51 56.5124C21.5386 56.4681 21.5345 56.3971 21.5386 56.3351C21.6571 54.6118 21.7307 52.8842 21.9024 51.1697C22.0577 49.6502 22.3274 48.1394 22.544 46.6243C22.544 46.5977 22.5522 46.5756 22.5522 46.549C22.6667 44.8788 22.7525 43.2088 22.9078 41.5431C23.0181 40.3425 23.2021 39.1508 23.3982 37.9635C23.4187 37.8394 23.8192 37.6355 23.9336 37.702C24.8287 38.1981 25.7075 38.7299 26.5698 39.2925C27.5344 39.9172 28.4703 40.6038 29.4349 41.224C30.8082 42.11 32.206 42.9518 33.5874 43.8245C35.5533 45.0694 37.5192 46.3053 39.4687 47.5767C41.6186 48.9811 43.7357 50.452 45.8978 51.8342C46.8501 52.4411 47.8759 52.9106 48.8609 53.4378Z" fill="white" fill-opacity="0.4"/>
<path d="M82.9436 67.025C82.8741 65.0935 82.7106 63.1575 82.7678 61.2304C82.8046 59.9412 83.1398 58.6608 83.3768 57.385C83.573 56.3439 83.7447 55.2808 84.0716 54.2884C84.7378 52.2727 85.5552 50.3145 86.2133 48.2944C86.5688 47.209 87.3331 46.2919 87.2637 45.0116C87.2269 44.3692 87.5211 43.7137 87.5906 43.058C87.6928 42.0923 87.5334 41.1972 86.9816 40.3599C86.6056 39.7885 86.5402 38.938 86.107 38.4551C85.5634 37.8437 84.8318 37.3475 84.1002 37.0374C82.445 36.333 80.7365 35.7659 79.0445 35.1546C77.1971 34.4856 75.3375 33.8522 73.4942 33.1655C72.2926 32.7181 71.1114 32.1952 69.9139 31.7301C68.4957 31.1852 67.0652 30.6846 65.6469 30.1397C63.8159 29.4353 62.0013 28.6823 60.1661 27.9868C59.3038 27.6589 58.4087 27.4285 57.5381 27.1317C56.8024 26.8791 56.0749 26.6001 55.3474 26.3166C54.4524 25.971 53.5205 25.7007 52.6786 25.24C50.9415 24.2831 50.7372 22.4092 52.2167 21.1776C52.6786 20.7922 53.5695 20.7967 54.2071 20.934C55.094 21.129 55.9156 21.6383 56.782 21.9749C58.1635 22.5154 59.5572 23.0206 60.9468 23.5389C62.2424 24.0218 63.5421 24.4957 64.8418 24.9741C65.9576 25.3817 67.0733 25.7894 68.1932 26.197C69.9425 26.8349 71.6959 27.4551 73.4329 28.1196C74.5037 28.5271 75.5418 29.0323 76.6086 29.4443C77.4914 29.7854 78.3987 30.0335 79.2856 30.3569C80.2257 30.698 81.1493 31.0878 82.0853 31.4422C83.2297 31.8807 84.3659 32.3505 85.5103 32.7846C86.8999 33.3118 88.498 33.4802 89.344 35.0174C90.0511 36.3066 90.6437 37.6799 91.175 39.0709C91.8453 40.8253 92.1437 42.6992 91.8535 44.5731C91.641 45.9597 91.2036 47.3197 90.7459 48.6444C90.1492 50.3677 89.389 52.0247 88.7841 53.7435C88.3508 54.9751 88.1506 56.3039 87.701 57.5267C86.7609 60.0873 87.0103 62.7499 87.0184 65.3858C87.0184 66.387 87.231 67.3881 87.3291 68.3893C87.4435 69.5323 86.6179 69.9045 85.8904 70.2235C85.31 70.476 84.6643 70.4938 84.1166 69.8957C83.3727 69.0895 82.8905 68.2078 82.9477 67.0294L82.9436 67.025Z" fill="white" fill-opacity="0.4"/>
<path d="M87.0679 72.1062C88.8908 71.7872 90.6482 73.8162 90.873 75.411C90.9752 76.1287 91.3635 76.8111 91.4248 77.5288C91.482 78.1977 91.3267 78.9019 91.1877 79.5753C91.0161 80.3993 90.8035 81.2233 90.5297 82.0119C89.9779 83.589 88.7763 84.4218 87.3418 84.6522C86.6919 84.7541 85.8295 84.4396 85.29 83.9877C83.9127 82.8447 83.1729 81.3297 82.989 79.3406C82.8909 78.2774 83.0585 77.2806 83.132 76.2927C83.2219 75.0346 83.88 73.856 84.7832 72.9567C85.4372 72.3011 86.2219 71.9734 87.0761 72.1107L87.0679 72.1062Z" fill="white" fill-opacity="0.4"/>
<path d="M80.4723 91.6966C80.7298 90.4961 80.9914 89.2999 81.2407 88.0993C81.3796 87.4392 81.4614 86.7658 81.6289 86.119C81.8129 85.419 82.2747 84.8741 82.9573 85.0469C83.5335 85.1931 84.1425 85.5609 84.5431 86.0305C85.0008 86.5665 84.9272 87.2487 84.6698 88.0284C84.3428 89.0074 84.3959 90.1284 84.2365 91.1783C84.024 92.5783 83.7992 93.9825 83.5131 95.3647C83.3415 96.1975 82.618 96.4146 81.9804 96.4545C81.2284 96.5032 80.2598 95.5286 80.2598 94.8109C80.2598 94.2616 80.4233 93.7122 80.5009 93.1585C80.5663 92.6845 80.6072 92.206 80.6562 91.7276C80.5949 91.7143 80.5377 91.7054 80.4764 91.6921L80.4723 91.6966Z" fill="white" fill-opacity="0.4"/>
<path d="M90.3547 91.2005C90.3547 90.3499 90.3833 89.4993 90.3342 88.6531C90.3138 88.2943 90.2157 87.9487 90.1054 87.612C89.8152 86.7216 90.2321 85.3129 90.9064 85.0426C91.9936 84.6085 92.9786 85.016 93.3015 86.1722C93.608 87.262 93.8655 88.3961 93.9513 89.5258C94.0617 91.001 94.0453 92.494 93.9636 93.9736C93.9023 95.1122 93.1503 96.2817 91.9936 96.1134C91.1966 95.9982 90.3833 95.0059 90.3588 93.9249C90.3383 93.0168 90.3547 92.1086 90.3547 91.2005Z" fill="white" fill-opacity="0.4"/>
<path d="M85.4858 92.423C85.4858 91.4262 85.4694 90.4294 85.4858 89.4326C85.5144 87.9707 85.8781 87.2973 87.043 86.9783C87.5171 86.8498 88.1874 87.4258 88.7146 87.7713C88.9108 87.8998 89.0497 88.2852 89.0579 88.5555C89.0865 90.1237 89.0947 91.692 89.0456 93.2603C89.0211 94.0533 88.829 94.8375 88.78 95.6305C88.7269 96.5253 87.9176 97.5354 87.1451 97.5708C86.3441 97.6062 85.4817 96.583 85.4817 95.5995C85.4817 94.5407 85.4817 93.4863 85.4817 92.4275L85.4858 92.423Z" fill="white" fill-opacity="0.4"/>
</svg>
