<svg width="165" height="301" viewBox="0 0 165 301" fill="none" xmlns="http://www.w3.org/2000/svg">
<path fill-rule="evenodd" clip-rule="evenodd" d="M102.872 25.0774C99.2509 26.8136 95.6298 28.5943 92.027 30.3749C80.9448 35.8697 82.6915 34.1434 89.1219 49.6659C90.75 53.5823 92.6107 59.3089 96.6331 58.4062C100.587 57.5184 101.216 52.206 105.886 52.0433C108.855 51.9446 110.511 55.0915 111.149 58.2138C111.706 60.9119 110.538 63.7531 108.226 64.9369C106.571 65.7852 105.43 65.292 102.338 66.1354C97.7824 67.3833 97.7824 70.0025 99.4652 74.2444C101.066 78.2742 102.813 82.3287 104.505 86.329C105.312 88.2428 105.759 89.619 106.206 90.7091C107.437 93.7327 110.698 95.104 113.512 93.8215C123.554 89.2343 152.468 75.1224 161.881 70.0468C164.362 68.7101 165.58 65.6224 164.731 62.7714C164.034 60.4285 162.675 58.0807 161.398 55.0571C160.28 52.4182 159.113 48.6744 157.681 45.6557C156.085 42.2918 152.021 41.3595 149.271 43.6877C145.659 46.7458 141.669 50.5735 138.426 43.2487C132.94 30.8632 147.055 37.3248 149.768 31.1394C151.009 28.3181 148.359 24.0021 146.918 20.5937C145.901 18.1719 143.014 10.4328 141.824 8.79524C139.68 5.85548 135.475 8.56832 132.329 10.1171C130.783 10.8767 129.182 11.587 127.59 12.3318C124.366 13.8461 120.754 11.7448 119.997 8.03068C119.358 4.90842 117.954 2.17589 113.612 0.819451C103.027 -2.48532 96.3458 4.83937 95.7256 11.4834C95.4884 14.068 96.0357 16.6478 97.5179 19.1683C98.1199 20.1844 99.2372 21.6394 99.903 22.2215C101.996 24.0416 101.011 22.4583 102.867 25.0922V25.0774H102.872Z" fill="white" fill-opacity="0.7"/>
<path d="M52.9464 262.873C52.7385 262.999 52.4864 263.08 52.3229 263.253C47.2838 268.701 42.2516 274.155 37.233 279.621C36.9195 279.96 36.664 280.404 36.497 280.851C34.0916 287.265 31.6999 293.687 29.3217 300.113C29.1684 300.527 28.9947 300.723 28.5586 300.7C27.9828 300.671 27.4001 300.741 26.8209 300.763C25.2026 300.819 24.1328 299.836 23.8943 298.093C23.7341 296.915 23.5536 295.741 23.4241 294.559C23.3832 294.182 23.2265 294.09 22.9267 293.976C21.3287 293.374 19.7342 292.746 18.1568 292.081C17.8263 291.941 17.6219 291.952 17.3629 292.199C16.552 292.971 15.7207 293.717 14.8962 294.474C13.6867 295.582 12.3307 295.567 11.1689 294.404C9.70042 292.934 8.23878 291.453 6.79078 289.961C5.78569 288.927 5.65282 287.428 6.45689 286.187C7.19281 285.053 7.96281 283.949 8.62038 282.978C7.84697 281.028 7.12467 279.181 6.37171 277.35C6.29675 277.169 6.04463 276.988 5.85724 276.965C4.76357 276.833 3.6665 276.759 2.57283 276.637C1.23385 276.489 0.269645 275.44 0.208318 273.996C0.109513 271.725 0.0413711 269.45 0.000486284 267.175C-0.0233632 265.705 0.831811 264.62 2.1776 264.358C3.19973 264.158 4.22866 264.003 5.25759 263.855C5.65622 263.796 5.84361 263.626 5.9833 263.179C6.49777 261.525 7.07016 259.889 7.65958 258.26C7.77883 257.928 7.77883 257.725 7.56418 257.455C6.89299 256.624 6.23543 255.779 5.58468 254.929C4.62729 253.677 4.66136 252.189 5.68348 250.992C7.02586 249.416 8.37847 247.85 9.7379 246.288C10.7702 245.102 12.1399 244.965 13.3596 245.918C14.2659 246.627 15.1585 247.359 15.9865 248.027C17.4719 247.281 18.8995 246.565 20.3237 245.848C20.3611 245.83 20.3952 245.8 20.4327 245.796C21.6047 245.682 21.8603 244.87 21.8296 243.758C21.8126 243.045 21.9114 242.332 21.9659 241.62C22.0885 240.024 23.1209 238.946 24.5893 238.887C26.5859 238.806 28.5858 238.732 30.5824 238.662C32.044 238.61 33.1479 239.629 33.3659 241.206C33.5158 242.299 33.6589 243.392 33.8463 244.478C33.8804 244.674 34.0644 244.917 34.2347 244.991C35.9723 245.745 37.7202 246.476 39.4748 247.181C39.6452 247.252 39.9382 247.2 40.0813 247.074C40.8615 246.398 41.611 245.678 42.3776 244.984C43.6519 243.832 44.9772 243.865 46.197 245.095C47.6177 246.524 49.0351 247.961 50.4422 249.405C51.5563 250.546 51.6721 252.034 50.7624 253.378C50.1355 254.305 49.5086 255.232 48.8647 256.141C48.6501 256.447 48.6228 256.672 48.7863 257.053C49.478 258.659 50.1185 260.288 50.742 261.924C50.8715 262.264 50.9805 262.459 51.3519 262.459C51.8084 262.459 52.265 262.541 52.7215 262.589C52.7965 262.681 52.8714 262.773 52.9464 262.869V262.873ZM18.3169 269.495C18.3442 275.64 22.9062 280.544 28.5756 280.522C34.0985 280.5 38.7287 275.525 38.7184 269.62C38.7082 263.353 34.1496 258.393 28.4189 258.415C22.8687 258.438 18.2896 263.46 18.3169 269.495Z" fill="white" fill-opacity="0.7"/>
<path d="M49.0934 292.871C45.7033 289.278 42.4053 285.784 39.1992 282.387C47.6522 273.132 56.0676 263.914 64.4695 254.715C67.8084 258.349 71.0656 261.887 74.241 265.34C65.9107 274.461 57.5259 283.639 49.0934 292.875V292.871Z" fill="white" fill-opacity="0.7"/>
<path d="M76.9317 262.448C73.6268 258.866 70.3629 255.328 67.0273 251.709C67.8553 250.834 68.6968 249.951 69.5315 249.053C70.3833 248.141 71.2146 247.203 72.0766 246.299C74.2401 244.027 77.2724 243.44 79.9401 244.755C82.5636 246.047 84.1547 248.928 83.9877 252.159C83.9026 253.832 83.3166 255.31 82.3149 256.587C82.1343 256.816 81.9333 257.03 81.7357 257.245C80.1412 258.973 78.5432 260.701 76.9317 262.448Z" fill="white" fill-opacity="0.7"/>
<path d="M37.4622 285.478C40.6137 288.82 43.6733 292.066 46.8044 295.386C41.9697 297.1 37.2373 298.777 32.3516 300.509C34.0721 295.445 35.7484 290.519 37.4622 285.478Z" fill="white" fill-opacity="0.7"/>
</svg>
