<svg width="104" height="104" viewBox="0 0 104 104" fill="none" xmlns="http://www.w3.org/2000/svg">
<path d="M45.5007 70.6334C44.9229 70.6334 44.4173 70.4355 43.984 70.0397C43.5506 69.6439 43.334 69.1196 43.334 68.4667V35.5334C43.334 34.8834 43.5506 34.3605 43.984 33.9647C44.4173 33.5689 44.9229 33.3696 45.5007 33.3667C45.6451 33.3667 46.1507 33.5834 47.0173 34.0167L62.7257 49.725C63.0868 50.0861 63.3395 50.4473 63.484 50.8084C63.6284 51.1695 63.7006 51.5667 63.7006 52C63.7006 52.4334 63.6284 52.8306 63.484 53.1917C63.3395 53.5528 63.0868 53.9139 62.7257 54.275L47.0173 69.9834C46.8007 70.2 46.5666 70.3633 46.3153 70.473C46.064 70.5828 45.7924 70.6363 45.5007 70.6334Z" fill="#0697A4"/>
</svg>
