<svg width="127" height="137" viewBox="0 0 127 137" fill="none" xmlns="http://www.w3.org/2000/svg">
<path d="M63.1933 136.994C98.0941 136.994 126.387 106.327 126.387 68.4969C126.387 30.6672 98.0941 0 63.1933 0C28.2926 0 0 30.6672 0 68.4969C0 106.327 28.2926 136.994 63.1933 136.994Z" fill="#0699A6"/>
<path d="M63.8697 108.868C58.9036 108.762 53.9252 108.697 48.959 108.551C45.6889 108.458 42.4799 107.942 39.4294 106.554C33.6213 103.908 29.9608 99.2133 28.2403 92.6929C27.6058 90.2858 27.3374 87.7995 27.2398 85.2998C26.8859 76.0946 27.0079 66.8763 27.0811 57.6579C27.1055 54.8011 27.2275 51.9308 27.5204 49.1004C28.0451 43.9423 29.7655 39.3268 33.2308 35.5839C36.1959 32.3833 39.8077 30.5846 43.8587 29.7382C46.8115 29.1166 49.8132 29.0236 52.8026 29.0104C60.7949 28.9839 68.787 29.0104 76.7914 29.0633C79.6711 29.0898 82.563 29.2753 85.3694 30.0953C93.325 32.4098 98.108 38.0038 99.8773 46.68C100.512 49.8013 100.597 52.9893 100.622 56.1635C100.67 64.0593 100.719 71.9683 100.658 79.8642C100.634 83.0384 100.487 86.2254 100.121 89.36C99.4625 95.0074 97.2417 99.8354 93.1053 103.499C90.2501 106.038 86.9312 107.4 83.3316 108.062C80.0859 108.657 76.7914 108.67 73.5091 108.723C70.3001 108.776 67.091 108.723 63.8819 108.723C63.8819 108.763 63.8819 108.802 63.8819 108.842L63.8697 108.868ZM63.8087 101.7C63.8087 101.62 63.8087 101.554 63.8087 101.475C67.8475 101.475 71.8863 101.515 75.9129 101.462C78.4387 101.422 80.9767 101.33 83.4659 100.695C87.0654 99.7824 89.9084 97.7322 91.7875 94.2273C92.8246 92.2831 93.4348 90.1541 93.5934 87.9321C93.8252 84.5992 94.0083 81.2658 94.0327 77.9197C94.0815 71.029 94.0449 64.1514 93.9961 57.2607C93.9717 54.351 93.9229 51.4418 93.4348 48.5586C92.3854 42.3028 88.8469 38.2817 83.1974 36.9194C80.7448 36.3243 78.2313 36.2449 75.7299 36.2052C70.1658 36.1258 64.5896 36.0864 59.0133 36.1128C55.3528 36.1261 51.68 36.2447 48.0195 36.4034C45.6157 36.5092 43.2608 37.0123 41.0888 38.2026C37.4893 40.1601 35.4028 43.4005 34.4877 47.5931C33.9386 50.0928 33.841 52.6322 33.7921 55.1715C33.6091 64.9852 33.5481 74.7985 33.8654 84.6121C33.9264 86.6092 34.1216 88.593 34.5974 90.5372C35.5736 94.5315 37.6601 97.5737 41.0888 99.4518C43.2486 100.629 45.5791 101.158 47.9829 101.25C53.2541 101.449 58.5375 101.541 63.8087 101.687V101.7Z" fill="white"/>
<path d="M82.7939 68.8331C82.8549 80.0884 74.3868 89.2936 63.881 89.3597C53.5095 89.4391 45.0048 80.2472 44.9438 68.9126C44.8706 57.6044 53.3509 48.3859 63.8567 48.333C74.2649 48.2801 82.7329 57.4589 82.7939 68.8331ZM63.9055 82.1385C70.6775 82.1252 76.1439 76.1606 76.1317 68.7937C76.1317 61.4798 70.6043 55.5281 63.8689 55.5414C57.0481 55.5546 51.5816 61.506 51.5939 68.8861C51.6061 76.2265 57.109 82.1517 63.9055 82.1385Z" fill="white"/>
<path d="M79.1094 47.5267C79.1094 44.8948 81.0861 42.7391 83.5264 42.7259C85.9302 42.7127 87.9679 44.8951 87.9679 47.5138C87.9679 50.1854 86.0034 52.3147 83.5264 52.3411C81.1105 52.3544 79.1216 50.1855 79.1094 47.5403V47.5267Z" fill="white"/>
</svg>
