<svg width="127" height="137" viewBox="0 0 127 137" fill="none" xmlns="http://www.w3.org/2000/svg">
<path d="M63.1933 136.994C98.094 136.994 126.387 106.327 126.387 68.4969C126.387 30.6672 98.094 0 63.1933 0C28.2925 0 0 30.6672 0 68.4969C0 106.327 28.2925 136.994 63.1933 136.994Z" fill="#0699A6"/>
<path d="M64.8584 62.3776C65.5295 61.6105 66.0786 60.9097 66.6887 60.3013C69.2633 57.7223 72.2893 56.3336 75.8157 56.3336C78.2926 56.3336 80.7817 56.1219 83.2099 56.9684C88.4689 58.8068 92.1783 63.8727 92.6176 69.9037C92.6908 70.9485 92.7274 71.9929 92.7274 73.0377C92.7274 81.5684 92.7274 90.0993 92.7274 98.63C92.7274 99.9922 92.7274 99.9926 91.4706 99.9926C88.3713 99.9926 85.272 99.9926 82.1606 99.9926C81.2332 99.9926 80.7656 99.5028 80.7575 98.5241C80.7575 91.1308 80.7574 83.7378 80.733 76.3578C80.733 74.1094 79.9765 72.1388 78.5489 70.512C75.2422 66.7294 69.0925 67.4828 66.2494 71.9928C65.2977 73.5006 64.834 75.1806 64.834 76.9926C64.834 84.3197 64.8218 91.647 64.834 98.9742C64.834 99.728 64.6754 100.032 63.9189 100.019C60.5511 99.9794 57.1834 99.9794 53.8279 100.019C53.0958 100.019 52.9494 99.7281 52.9616 99.0271C52.9738 85.259 52.9738 71.4905 52.9616 57.7356C52.9616 56.9817 53.169 56.7433 53.8523 56.7566C57.22 56.783 60.5878 56.783 63.9433 56.7566C64.6266 56.7566 64.8706 56.9817 64.8462 57.7356C64.7974 59.2434 64.834 60.7508 64.834 62.4041L64.8584 62.3776Z" fill="white"/>
<path d="M46.2156 78.3543C46.2156 85.1789 46.1912 91.9905 46.24 98.815C46.24 99.807 45.9715 100.032 45.1051 100.019C41.774 99.9659 38.4308 99.9791 35.0997 100.019C34.4042 100.019 34.209 99.7936 34.209 99.0398C34.2212 85.2716 34.2334 71.5164 34.209 57.7482C34.209 56.9415 34.4407 56.7305 35.1606 56.7305C38.5283 56.7701 41.8961 56.7701 45.2516 56.7305C46.0203 56.7305 46.24 56.9683 46.24 57.8148C46.2156 64.6658 46.2278 71.5168 46.2278 78.3679L46.2156 78.3543Z" fill="white"/>
<path d="M40.1503 35C44.0915 35 47.4592 38.6367 47.4225 42.869C47.3859 47.1939 44.0671 50.7125 40.0283 50.6993C36.2091 50.6993 32.9878 47.0884 33 42.8296C33.0122 38.5048 36.2213 35 40.1625 35H40.1503Z" fill="white"/>
</svg>
