<svg width="127" height="137" viewBox="0 0 127 137" fill="none" xmlns="http://www.w3.org/2000/svg">
<path d="M63.1933 136.994C98.0941 136.994 126.387 106.327 126.387 68.4969C126.387 30.6672 98.0941 0 63.1933 0C28.2926 0 0 30.6672 0 68.4969C0 106.327 28.2926 136.994 63.1933 136.994Z" fill="#0699A6"/>
<path d="M26.0366 109.489C26.4514 108.153 26.8297 106.91 27.2202 105.68C28.9895 99.9924 30.7587 94.3057 32.5035 88.6054C32.5645 88.3938 32.5279 88.063 32.4181 87.8647C28.4159 80.3523 26.6467 72.2709 27.5984 63.6609C29.2091 49.0198 36.2007 38.2806 48.4269 31.8529C62.3492 24.5257 79.2366 27.8981 90.023 39.8543C96.1606 46.6524 99.7601 54.7862 100.419 64.2692C101.371 77.7993 97.0513 89.1078 87.5949 98.0088C82.2993 103.008 76.0763 105.958 69.1213 107.016C61.2389 108.206 53.7592 106.764 46.7187 102.73C46.3893 102.532 46.1086 102.532 45.7548 102.651C39.3488 104.886 32.9306 107.108 26.5125 109.33C26.3782 109.37 26.244 109.41 26 109.489H26.0366ZM35.5418 99.3314C35.8346 99.2388 36.0299 99.1857 36.2129 99.1196C39.7271 97.9028 43.2533 96.6863 46.7553 95.4431C47.1335 95.3108 47.3898 95.3903 47.6948 95.6019C52.7342 99.0671 58.2495 100.826 64.204 100.746C72.5622 100.627 79.7857 97.4006 85.6304 90.9199C92.6831 83.1034 95.5138 73.6337 94.1106 62.8149C93.0369 54.5619 89.413 47.7107 83.4951 42.4071C76.4912 36.1116 68.4013 33.6912 59.4086 35.1064C52.3193 36.2306 46.3038 39.7485 41.5207 45.5282C35.0415 53.3447 32.5401 62.5499 33.9433 72.9455C34.6144 77.9184 36.3716 82.455 39.0316 86.5815C39.2878 86.965 39.3122 87.2958 39.178 87.7323C38.5557 89.6368 37.9822 91.5543 37.3843 93.4721C36.7864 95.3899 36.2007 97.2943 35.5662 99.3443L35.5418 99.3314Z" fill="white"/>
<path d="M45.707 58.754C45.707 54.5084 47.0493 51.5594 49.5506 49.2052C50.2828 48.5175 51.1613 48.226 52.1496 48.345C52.6987 48.4112 53.26 48.4777 53.8213 48.4645C54.5168 48.4513 55.0049 48.7683 55.2855 49.4164C55.6516 50.2761 55.9566 51.149 56.2617 52.0351C56.9572 54.0322 57.6405 56.0426 58.336 58.0397C58.5434 58.6481 58.519 59.204 58.2506 59.7859C57.6649 61.0821 56.7131 62.0608 55.8102 63.0659C55.0293 63.9256 54.956 64.2694 55.4807 65.3275C58.1773 70.6311 61.9355 74.7576 67.0603 77.3102C67.3897 77.469 67.6948 77.6672 68.0243 77.8127C68.7076 78.1301 69.1712 78.0507 69.6715 77.4555C70.7086 76.2123 71.7336 74.9425 72.7341 73.6596C73.3442 72.8792 73.7713 72.6548 74.6376 73.0913C75.9676 73.7526 77.2488 74.4795 78.5422 75.2069C79.7502 75.8946 80.9338 76.6222 82.1539 77.2967C82.825 77.667 83.0935 78.1961 83.0325 79.0029C82.9349 80.3387 82.7152 81.6615 82.1661 82.8518C81.8489 83.5528 81.3486 84.214 80.7995 84.7298C79.3963 86.0524 77.7735 86.912 75.9432 87.3485C73.8689 87.8378 71.9166 87.4675 69.9765 86.6872C66.9383 85.4572 63.8878 84.2539 61.1424 82.3229C57.0182 79.4264 53.6993 75.6301 50.9295 71.2656C49.6605 69.2817 48.4891 67.2054 47.4153 65.0892C46.2439 62.7615 45.7315 60.3281 45.7315 58.741L45.707 58.754Z" fill="white"/>
</svg>
